<?xml version="1.0" encoding="UTF-8"?>
<svg id="b" data-name="Layer 2" xmlns="http://www.w3.org/2000/svg" width="213.67" height="252.07" viewBox="0 0 213.67 252.07">
  <g id="c" data-name="Layer 1">
    <g>
      <polygon points="213.02 81.33 213.02 94.21 149.09 131.06 77.97 172.05 52.63 157.09 .68 126.42 .68 113.54 36.87 92.68 134.78 36.23 154.62 47.67 213.02 81.33" fill="none" stroke="#ff5d36" stroke-miterlimit="10" stroke-width="1.3"/>
      <polygon points="101.26 .75 .65 58.7 .65 71.59 36.87 92.68 56.56 104.14 154.62 47.67 157.19 46.19 157.19 33.31 101.26 .75" fill="none" stroke="#0071ce" stroke-miterlimit="10" stroke-width="1.3"/>
      <polygon points="212.99 167.89 212.99 180.78 90.08 251.32 .68 199.79 .68 186.9 52.63 157.09 123.59 116.36 149.09 131.06 212.99 167.89" fill="none" stroke="#763cbc" stroke-miterlimit="10" stroke-width="1.3"/>
    </g>
  </g>
</svg>